<?xml version="1.0" encoding="iso-8859-1"?>
<!-- Generator: Adobe Illustrator 19.0.0, SVG Export Plug-In . SVG Version: 6.00 Build 0)  -->
<svg version="1.1" id="Layer_1" xmlns="http://www.w3.org/2000/svg" xmlns:xlink="http://www.w3.org/1999/xlink" x="0px" y="0px"
	 viewBox="0 0 503.825 503.825" style="enable-background:new 0 0 503.825 503.825;" xml:space="preserve">
<g transform="translate(1 1)">
	<g>
		<path d="M453.194,211.572c-19.305-40.289-34.413-122.544-34.413-187.174v-2.518c0-5.875,0-12.59-5.036-18.466
			c-2.518-2.518-6.715-4.197-11.751-4.197h-41.967c-4.34,0-7.427,2.497-8.199,6.41c-23.457,34.626-57.354,52.344-100.915,52.344
			c-43.8,0-77.828-17.915-101.298-53.717c-0.923-2.474-2.914-4.188-5.602-4.791c-1.544-0.489-3.223-0.624-4.733-0.246H99.83
			c-5.036,0-9.233,1.679-11.751,5.036c-5.036,5.036-5.036,11.751-5.036,17.626v2.518c0,64.629-15.108,146.885-34.413,186.334
			c-4.197,8.393-7.554,22.662-7.554,31.895v235.016c0,14.269,10.911,25.18,25.18,25.18h151.082c1.679,0,3.357,0,5.036-1.679
			l28.538-20.984l28.538,20.984c1.679,0.839,3.357,1.679,5.036,1.679h151.082c14.269,0,25.18-10.911,25.18-24.341V243.467
			C460.749,233.395,457.391,219.966,453.194,211.572z M250.912,74.759c39.274,0,72.722-13.315,97.865-39.109
			c-1.5,9.05-3.619,19.24-6.423,29.892c-12.43,46.061-37.172,100.216-79.669,108.765c-0.344,0.069-0.685,0.144-1.032,0.206
			c-0.517,0.094-1.039,0.173-1.561,0.254c-0.527,0.081-1.055,0.158-1.587,0.225c-0.45,0.057-0.902,0.11-1.356,0.157
			c-0.654,0.067-1.314,0.121-1.976,0.167c-0.366,0.026-0.73,0.057-1.099,0.076c-1.045,0.054-2.097,0.088-3.162,0.088
			s-2.117-0.035-3.162-0.088c-0.369-0.019-0.733-0.05-1.099-0.076c-0.663-0.046-1.322-0.1-1.977-0.167
			c-0.453-0.047-0.903-0.099-1.352-0.156c-0.535-0.067-1.067-0.145-1.597-0.227c-0.518-0.08-1.037-0.158-1.549-0.252
			c-0.356-0.064-0.708-0.142-1.062-0.213c-36.444-7.346-59.829-48.209-73.585-88.483c-5.847-17.391-9.863-34.686-12.314-49.176
			C178.339,61.502,211.725,74.759,250.912,74.759z M110.742,267.808c-1.679,0-2.518-0.839-2.518-2.518V253.54
			c0-0.839,0.839-2.518,2.518-2.518h280.341c1.679,0,2.518,0.839,2.518,2.518v11.751c0,1.679-0.839,2.518-2.518,2.518H110.742z
			 M213.981,486.038H66.257c-5.036,0-8.393-3.357-8.393-8.393V242.628c0-6.715,2.518-17.626,5.875-24.341
			C83.883,175.481,99.83,92.386,99.83,24.399v-2.518c0-1.679,0-4.197,0-5.875h33.574c3.131,46.184,29.632,159.515,101.273,174.581
			c0.119,0.025,0.237,0.054,0.357,0.078c1.066,0.219,2.144,0.411,3.23,0.586c0.23,0.037,0.456,0.081,0.687,0.116
			c0.995,0.151,2.003,0.274,3.015,0.388c0.186,0.021,0.367,0.051,0.553,0.071v42.41H110.742c-10.911,0-19.305,9.233-19.305,19.305
			v11.751c0,10.911,8.393,19.305,19.305,19.305h131.777v25.18H110.742c-10.911,0-19.305,9.233-19.305,19.305v11.751
			c0,10.911,8.393,19.305,19.305,19.305h131.777v25.18H110.742c-10.911,0-19.305,9.233-19.305,19.305v11.751
			c0,10.911,8.393,19.305,19.305,19.305h131.777v28.765L213.981,486.038z M110.742,343.349c-1.679,0-2.518-0.839-2.518-2.518
			v-11.751c0-0.839,0.839-2.518,2.518-2.518h280.341c1.679,0,2.518,0.839,2.518,2.518v11.751c0,1.679-0.839,2.518-2.518,2.518
			H110.742z M110.742,418.89c-1.679,0-2.518-0.839-2.518-2.518v-11.751c0-0.839,0.839-2.518,2.518-2.518h280.341
			c1.679,0,2.518,0.839,2.518,2.518v11.751c0,1.679-0.839,2.518-2.518,2.518H110.742z M443.962,477.645
			c0,5.036-3.357,8.393-8.393,8.393H287.004l-27.698-20.409v-29.951h131.777c10.911,0,19.305-8.393,19.305-19.305v-11.751
			c0-10.911-8.393-19.305-19.305-19.305H259.306v-25.18h131.777c10.911,0,19.305-8.393,19.305-19.305v-11.751
			c0-10.911-8.393-19.305-19.305-19.305H259.306v-25.18h131.777c10.911,0,19.305-8.393,19.305-19.305V253.54
			c0-10.911-8.393-19.305-19.305-19.305H259.306v-42.4c0.889-0.092,1.763-0.215,2.638-0.336c0.16-0.022,0.324-0.038,0.483-0.062
			c51.979-7.501,80.976-65.312,95.027-116.018c6.543-23.182,9.96-44.836,10.966-59.414h33.574c0,1.679,0,4.197,0,5.875v2.518
			c0,67.987,15.948,151.082,36.092,193.888c3.357,5.875,5.875,17.626,5.875,24.341V477.645z"/>
	</g>
</g>
<g>
</g>
<g>
</g>
<g>
</g>
<g>
</g>
<g>
</g>
<g>
</g>
<g>
</g>
<g>
</g>
<g>
</g>
<g>
</g>
<g>
</g>
<g>
</g>
<g>
</g>
<g>
</g>
<g>
</g>
</svg>
